<mxfile host="app.diagrams.net" modified="2023-12-12T13:38:28.660Z" agent="Mozilla/5.0 (Windows NT 10.0; Win64; x64) AppleWebKit/537.36 (KHTML, like Gecko) Chrome/120.0.0.0 Safari/537.36" etag="YS2wHQrI3xOq25sX57gd" version="22.1.7" type="device">
  <diagram name="Страница — 1" id="NtT46T3CuAn7PFYnAz-6">
    <mxGraphModel dx="1376" dy="506" grid="1" gridSize="10" guides="1" tooltips="1" connect="1" arrows="1" fold="1" page="1" pageScale="1" pageWidth="827" pageHeight="1169" math="0" shadow="0">
      <root>
        <mxCell id="0" />
        <mxCell id="1" parent="0" />
        <mxCell id="51rzMfF2jbTdFBJU-r59-1" value="" style="verticalLabelPosition=bottom;verticalAlign=top;html=1;shadow=0;dashed=0;strokeWidth=1;shape=mxgraph.android.phone2;strokeColor=#c0c0c0;" vertex="1" parent="1">
          <mxGeometry x="60" y="20" width="200" height="390" as="geometry" />
        </mxCell>
        <mxCell id="51rzMfF2jbTdFBJU-r59-2" value="" style="verticalLabelPosition=bottom;verticalAlign=top;html=1;shadow=0;dashed=0;strokeWidth=1;shape=mxgraph.android.phone2;strokeColor=#c0c0c0;" vertex="1" parent="1">
          <mxGeometry x="314" y="20" width="200" height="390" as="geometry" />
        </mxCell>
        <mxCell id="51rzMfF2jbTdFBJU-r59-3" value="" style="verticalLabelPosition=bottom;verticalAlign=top;html=1;shadow=0;dashed=0;strokeWidth=1;shape=mxgraph.android.phone2;strokeColor=#c0c0c0;" vertex="1" parent="1">
          <mxGeometry x="570" y="20" width="200" height="390" as="geometry" />
        </mxCell>
        <mxCell id="51rzMfF2jbTdFBJU-r59-5" value="войти" style="rounded=1;html=1;shadow=0;dashed=0;whiteSpace=wrap;fontSize=10;fillColor=#999999;align=center;strokeColor=#666666;fontColor=#ffffff;strokeWidth=2;" vertex="1" parent="1">
          <mxGeometry x="107.25" y="250" width="105.5" height="16.88" as="geometry" />
        </mxCell>
        <mxCell id="51rzMfF2jbTdFBJU-r59-6" value="регистрация" style="rounded=1;html=1;shadow=0;dashed=0;whiteSpace=wrap;fontSize=10;fillColor=#999999;align=center;strokeColor=#666666;fontColor=#ffffff;strokeWidth=2;" vertex="1" parent="1">
          <mxGeometry x="107.25" y="290" width="105.5" height="16.88" as="geometry" />
        </mxCell>
        <mxCell id="51rzMfF2jbTdFBJU-r59-7" value="логин" style="strokeWidth=1;html=1;shadow=0;dashed=0;shape=mxgraph.android.action_bar;fillColor=#E6E6E6;strokeColor=#c0c0c0;strokeWidth=2;whiteSpace=wrap;" vertex="1" parent="1">
          <mxGeometry x="79" y="150" width="162" height="20" as="geometry" />
        </mxCell>
        <mxCell id="51rzMfF2jbTdFBJU-r59-9" value="пароль" style="strokeWidth=1;html=1;shadow=0;dashed=0;shape=mxgraph.android.action_bar;fillColor=#E6E6E6;strokeColor=#c0c0c0;strokeWidth=2;whiteSpace=wrap;" vertex="1" parent="1">
          <mxGeometry x="80" y="190" width="160" height="20" as="geometry" />
        </mxCell>
        <mxCell id="51rzMfF2jbTdFBJU-r59-10" value="" style="dashed=0;labelPosition=right;align=left;shape=mxgraph.gmdl.checkbox;strokeColor=none;fillColor=#676767;strokeWidth=2;aspect=fixed;sketch=0;html=1;" vertex="1" parent="1">
          <mxGeometry x="90" y="220" width="10" height="10" as="geometry" />
        </mxCell>
        <mxCell id="51rzMfF2jbTdFBJU-r59-11" value="запомнить пароль" style="text;html=1;strokeColor=none;fillColor=none;align=center;verticalAlign=middle;whiteSpace=wrap;rounded=0;fontSize=8;" vertex="1" parent="1">
          <mxGeometry x="100" y="220" width="102.75" height="10" as="geometry" />
        </mxCell>
        <mxCell id="51rzMfF2jbTdFBJU-r59-12" value="&lt;b&gt;&lt;font face=&quot;Comic Sans MS&quot;&gt;РОБОТ ПЫЛИК&lt;/font&gt;&lt;/b&gt;" style="text;html=1;strokeColor=none;fillColor=none;align=center;verticalAlign=middle;whiteSpace=wrap;rounded=0;" vertex="1" parent="1">
          <mxGeometry x="130" y="60" width="60" height="30" as="geometry" />
        </mxCell>
        <mxCell id="51rzMfF2jbTdFBJU-r59-13" value="&lt;b&gt;&lt;font face=&quot;Comic Sans MS&quot;&gt;РОБОТ ПЫЛИК&lt;/font&gt;&lt;/b&gt;" style="text;html=1;strokeColor=none;fillColor=none;align=center;verticalAlign=middle;whiteSpace=wrap;rounded=0;" vertex="1" parent="1">
          <mxGeometry x="390" y="60" width="60" height="30" as="geometry" />
        </mxCell>
        <mxCell id="51rzMfF2jbTdFBJU-r59-14" value="&lt;b&gt;&lt;font face=&quot;Comic Sans MS&quot;&gt;РОБОТ ПЫЛИК&lt;/font&gt;&lt;/b&gt;" style="text;html=1;strokeColor=none;fillColor=none;align=center;verticalAlign=middle;whiteSpace=wrap;rounded=0;" vertex="1" parent="1">
          <mxGeometry x="642.5" y="60" width="60" height="30" as="geometry" />
        </mxCell>
        <mxCell id="51rzMfF2jbTdFBJU-r59-15" value="" style="verticalLabelPosition=bottom;verticalAlign=top;html=1;shadow=0;dashed=0;strokeWidth=1;shape=mxgraph.android.progressBar;strokeColor=#33b5e5;dx1=0.8;dx2=0.6;strokeWidth=2;" vertex="1" parent="1">
          <mxGeometry x="615" y="193.12" width="110" height="5" as="geometry" />
        </mxCell>
        <mxCell id="51rzMfF2jbTdFBJU-r59-16" value="" style="verticalLabelPosition=bottom;verticalAlign=top;html=1;shadow=0;dashed=0;strokeWidth=1;shape=mxgraph.android.progressBar;strokeColor=#33b5e5;dx1=0.8;dx2=0.6;strokeWidth=2;" vertex="1" parent="1">
          <mxGeometry x="615" y="255.94" width="115" height="5" as="geometry" />
        </mxCell>
        <mxCell id="51rzMfF2jbTdFBJU-r59-17" value="НАСТРОЙКИ" style="text;html=1;strokeColor=none;fillColor=none;align=center;verticalAlign=middle;whiteSpace=wrap;rounded=0;" vertex="1" parent="1">
          <mxGeometry x="390" y="120" width="60" height="30" as="geometry" />
        </mxCell>
        <mxCell id="51rzMfF2jbTdFBJU-r59-18" value="создать карту" style="rounded=1;html=1;shadow=0;dashed=0;whiteSpace=wrap;fontSize=10;fillColor=#999999;align=center;strokeColor=#666666;fontColor=#ffffff;strokeWidth=2;" vertex="1" parent="1">
          <mxGeometry x="361" y="193.12" width="105.5" height="16.88" as="geometry" />
        </mxCell>
        <mxCell id="51rzMfF2jbTdFBJU-r59-19" value="&lt;font style=&quot;font-size: 9px;&quot;&gt;задать область уборки&lt;/font&gt;" style="rounded=1;html=1;shadow=0;dashed=0;whiteSpace=wrap;fontSize=10;fillColor=#999999;align=center;strokeColor=#666666;fontColor=#ffffff;strokeWidth=2;" vertex="1" parent="1">
          <mxGeometry x="360" y="230" width="105.5" height="16.88" as="geometry" />
        </mxCell>
        <mxCell id="51rzMfF2jbTdFBJU-r59-20" value="сбросить карту" style="rounded=1;html=1;shadow=0;dashed=0;whiteSpace=wrap;fontSize=10;fillColor=#999999;align=center;strokeColor=#666666;fontColor=#ffffff;strokeWidth=2;" vertex="1" parent="1">
          <mxGeometry x="360" y="276.88" width="105.5" height="16.88" as="geometry" />
        </mxCell>
        <mxCell id="51rzMfF2jbTdFBJU-r59-21" value="&lt;font style=&quot;font-size: 9px;&quot;&gt;проверить обновления&lt;/font&gt;" style="rounded=1;html=1;shadow=0;dashed=0;whiteSpace=wrap;fontSize=10;fillColor=#999999;align=center;strokeColor=#666666;fontColor=#ffffff;strokeWidth=2;" vertex="1" parent="1">
          <mxGeometry x="360" y="320" width="105.5" height="16.88" as="geometry" />
        </mxCell>
        <mxCell id="51rzMfF2jbTdFBJU-r59-22" value="ДИАГНОСТИКА" style="text;html=1;strokeColor=none;fillColor=none;align=center;verticalAlign=middle;whiteSpace=wrap;rounded=0;" vertex="1" parent="1">
          <mxGeometry x="642.5" y="120" width="60" height="30" as="geometry" />
        </mxCell>
        <mxCell id="51rzMfF2jbTdFBJU-r59-23" value="&lt;font style=&quot;font-size: 10px;&quot;&gt;&lt;b&gt;&lt;i&gt;уровень заряда&lt;/i&gt;&lt;/b&gt;&lt;/font&gt;" style="text;html=1;strokeColor=none;fillColor=none;align=center;verticalAlign=middle;whiteSpace=wrap;rounded=0;" vertex="1" parent="1">
          <mxGeometry x="640" y="159" width="60" height="30" as="geometry" />
        </mxCell>
        <mxCell id="51rzMfF2jbTdFBJU-r59-24" value="&lt;b&gt;&lt;font style=&quot;font-size: 10px;&quot;&gt;&lt;i&gt;уровень воды&lt;/i&gt;&lt;/font&gt;&lt;/b&gt;" style="text;html=1;strokeColor=none;fillColor=none;align=center;verticalAlign=middle;whiteSpace=wrap;rounded=0;" vertex="1" parent="1">
          <mxGeometry x="640" y="223.44" width="60" height="30" as="geometry" />
        </mxCell>
        <mxCell id="51rzMfF2jbTdFBJU-r59-25" value="" style="verticalLabelPosition=bottom;verticalAlign=top;html=1;shadow=0;dashed=0;strokeWidth=1;shape=mxgraph.android.phone2;strokeColor=#c0c0c0;" vertex="1" parent="1">
          <mxGeometry x="60" y="440" width="200" height="390" as="geometry" />
        </mxCell>
        <mxCell id="51rzMfF2jbTdFBJU-r59-26" value="&lt;b&gt;&lt;font face=&quot;Comic Sans MS&quot;&gt;РОБОТ ПЫЛИК&lt;/font&gt;&lt;/b&gt;" style="text;html=1;strokeColor=none;fillColor=none;align=center;verticalAlign=middle;whiteSpace=wrap;rounded=0;" vertex="1" parent="1">
          <mxGeometry x="130" y="480" width="60" height="30" as="geometry" />
        </mxCell>
        <mxCell id="51rzMfF2jbTdFBJU-r59-31" value="" style="shape=ellipse;labelPosition=right;align=left;strokeColor=none;fillColor=#666666;opacity=10;sketch=0;html=1;" vertex="1" parent="1">
          <mxGeometry x="71" y="537" width="48" height="48" as="geometry" />
        </mxCell>
        <mxCell id="51rzMfF2jbTdFBJU-r59-32" value="" style="dashed=0;labelPosition=right;align=left;shape=mxgraph.gmdl.checkbox;strokeColor=#666666;fillColor=none;strokeWidth=2;sketch=0;html=1;" vertex="1" parent="51rzMfF2jbTdFBJU-r59-31">
          <mxGeometry x="16" y="16" width="16" height="16" as="geometry" />
        </mxCell>
        <mxCell id="51rzMfF2jbTdFBJU-r59-33" value="" style="shape=ellipse;labelPosition=right;align=left;strokeColor=none;fillColor=#666666;opacity=10;sketch=0;html=1;" vertex="1" parent="1">
          <mxGeometry x="71" y="585" width="48" height="96" as="geometry" />
        </mxCell>
        <mxCell id="51rzMfF2jbTdFBJU-r59-34" value="" style="dashed=0;labelPosition=right;align=left;shape=mxgraph.gmdl.checkbox;strokeColor=#666666;fillColor=none;strokeWidth=2;sketch=0;html=1;" vertex="1" parent="51rzMfF2jbTdFBJU-r59-33">
          <mxGeometry x="16" y="16" width="16" height="16" as="geometry" />
        </mxCell>
        <mxCell id="51rzMfF2jbTdFBJU-r59-35" value="" style="shape=ellipse;labelPosition=right;align=left;strokeColor=none;fillColor=#666666;opacity=10;sketch=0;html=1;" vertex="1" parent="51rzMfF2jbTdFBJU-r59-33">
          <mxGeometry y="48" width="48" height="48" as="geometry" />
        </mxCell>
        <mxCell id="51rzMfF2jbTdFBJU-r59-36" value="" style="dashed=0;labelPosition=right;align=left;shape=mxgraph.gmdl.checkbox;strokeColor=#666666;fillColor=none;strokeWidth=2;sketch=0;html=1;" vertex="1" parent="51rzMfF2jbTdFBJU-r59-35">
          <mxGeometry x="16" y="16" width="16" height="16" as="geometry" />
        </mxCell>
        <mxCell id="51rzMfF2jbTdFBJU-r59-39" value="" style="shape=ellipse;labelPosition=right;align=left;strokeColor=none;fillColor=#B0B0B0;opacity=10;sketch=0;html=1;" vertex="1" parent="1">
          <mxGeometry x="71" y="681" width="48" height="48" as="geometry" />
        </mxCell>
        <mxCell id="51rzMfF2jbTdFBJU-r59-40" value="" style="dashed=0;labelPosition=right;align=left;shape=mxgraph.gmdl.checkbox;strokeColor=none;fillColor=#676767;strokeWidth=2;sketch=0;html=1;" vertex="1" parent="51rzMfF2jbTdFBJU-r59-39">
          <mxGeometry x="16" y="16" width="16" height="16" as="geometry" />
        </mxCell>
        <mxCell id="51rzMfF2jbTdFBJU-r59-41" value="влажная" style="text;html=1;strokeColor=none;fillColor=none;align=center;verticalAlign=middle;whiteSpace=wrap;rounded=0;" vertex="1" parent="1">
          <mxGeometry x="130" y="546" width="60" height="30" as="geometry" />
        </mxCell>
        <mxCell id="51rzMfF2jbTdFBJU-r59-42" value="режим пылесоса" style="text;html=1;strokeColor=none;fillColor=none;align=center;verticalAlign=middle;whiteSpace=wrap;rounded=0;" vertex="1" parent="1">
          <mxGeometry x="130" y="594" width="60" height="30" as="geometry" />
        </mxCell>
        <mxCell id="51rzMfF2jbTdFBJU-r59-43" value="комбинированная" style="text;html=1;strokeColor=none;fillColor=none;align=center;verticalAlign=middle;whiteSpace=wrap;rounded=0;" vertex="1" parent="1">
          <mxGeometry x="152.75" y="640" width="60" height="30" as="geometry" />
        </mxCell>
        <mxCell id="51rzMfF2jbTdFBJU-r59-44" value="по расписанию" style="text;html=1;strokeColor=none;fillColor=none;align=center;verticalAlign=middle;whiteSpace=wrap;rounded=0;" vertex="1" parent="1">
          <mxGeometry x="130" y="690" width="70" height="30" as="geometry" />
        </mxCell>
        <mxCell id="51rzMfF2jbTdFBJU-r59-45" value="старт" style="rounded=1;html=1;shadow=0;dashed=0;whiteSpace=wrap;fontSize=10;fillColor=#999999;align=center;strokeColor=#666666;fontColor=#ffffff;strokeWidth=2;" vertex="1" parent="1">
          <mxGeometry x="100" y="729" width="105.5" height="16.88" as="geometry" />
        </mxCell>
        <mxCell id="51rzMfF2jbTdFBJU-r59-46" value="финиш" style="rounded=1;html=1;shadow=0;dashed=0;whiteSpace=wrap;fontSize=10;fillColor=#999999;align=center;strokeColor=#666666;fontColor=#ffffff;strokeWidth=2;" vertex="1" parent="1">
          <mxGeometry x="101" y="770" width="105.5" height="16.88" as="geometry" />
        </mxCell>
        <mxCell id="51rzMfF2jbTdFBJU-r59-47" value="" style="verticalLabelPosition=bottom;verticalAlign=top;html=1;shadow=0;dashed=0;strokeWidth=1;shape=mxgraph.android.phone2;strokeColor=#c0c0c0;" vertex="1" parent="1">
          <mxGeometry x="314" y="430" width="200" height="390" as="geometry" />
        </mxCell>
        <mxCell id="51rzMfF2jbTdFBJU-r59-48" value="&lt;b&gt;&lt;font face=&quot;Comic Sans MS&quot;&gt;РОБОТ ПЫЛИК&lt;/font&gt;&lt;/b&gt;" style="text;html=1;strokeColor=none;fillColor=none;align=center;verticalAlign=middle;whiteSpace=wrap;rounded=0;" vertex="1" parent="1">
          <mxGeometry x="382.75" y="470" width="60" height="30" as="geometry" />
        </mxCell>
        <mxCell id="51rzMfF2jbTdFBJU-r59-49" value="" style="verticalLabelPosition=bottom;html=1;verticalAlign=top;align=center;shape=mxgraph.floorplan.wallU;fillColor=strokeColor;" vertex="1" parent="1">
          <mxGeometry x="320" y="524" width="180" height="236" as="geometry" />
        </mxCell>
        <mxCell id="51rzMfF2jbTdFBJU-r59-50" value="" style="verticalLabelPosition=bottom;html=1;verticalAlign=top;align=center;shape=mxgraph.floorplan.wall;fillColor=strokeColor;direction=south;" vertex="1" parent="1">
          <mxGeometry x="410" y="530" width="10" height="100" as="geometry" />
        </mxCell>
        <mxCell id="51rzMfF2jbTdFBJU-r59-51" value="" style="verticalLabelPosition=bottom;html=1;verticalAlign=top;align=center;shape=mxgraph.floorplan.wall;fillColor=strokeColor;direction=south;" vertex="1" parent="1">
          <mxGeometry x="410" y="655" width="10" height="100" as="geometry" />
        </mxCell>
        <mxCell id="51rzMfF2jbTdFBJU-r59-52" value="" style="verticalLabelPosition=bottom;html=1;verticalAlign=top;align=center;shape=mxgraph.floorplan.wall;fillColor=strokeColor;" vertex="1" parent="1">
          <mxGeometry x="330" y="755" width="90" height="10" as="geometry" />
        </mxCell>
        <mxCell id="51rzMfF2jbTdFBJU-r59-54" value="" style="verticalLabelPosition=bottom;html=1;verticalAlign=top;align=center;shape=mxgraph.floorplan.couch;direction=south;" vertex="1" parent="1">
          <mxGeometry x="460" y="537" width="34" height="59" as="geometry" />
        </mxCell>
        <mxCell id="51rzMfF2jbTdFBJU-r59-55" value="" style="verticalLabelPosition=bottom;html=1;verticalAlign=top;align=center;shape=mxgraph.floorplan.doorDoubleAction;aspect=fixed;direction=south;" vertex="1" parent="1">
          <mxGeometry x="395.01" y="630.01" width="41.25" height="20" as="geometry" />
        </mxCell>
        <mxCell id="51rzMfF2jbTdFBJU-r59-56" value="" style="verticalLabelPosition=bottom;html=1;verticalAlign=top;align=center;shape=mxgraph.floorplan.desk_corner;" vertex="1" parent="1">
          <mxGeometry x="335" y="537" width="25" height="53" as="geometry" />
        </mxCell>
        <mxCell id="51rzMfF2jbTdFBJU-r59-57" value="" style="verticalLabelPosition=bottom;html=1;verticalAlign=top;align=center;shape=mxgraph.floorplan.piano;" vertex="1" parent="1">
          <mxGeometry x="330" y="681" width="60" height="55" as="geometry" />
        </mxCell>
        <mxCell id="51rzMfF2jbTdFBJU-r59-58" value="выберите зону уборки" style="text;html=1;strokeColor=none;fillColor=none;align=center;verticalAlign=middle;whiteSpace=wrap;rounded=0;" vertex="1" parent="1">
          <mxGeometry x="320" y="494.00000000000006" width="176" height="30" as="geometry" />
        </mxCell>
        <mxCell id="51rzMfF2jbTdFBJU-r59-59" value="" style="verticalLabelPosition=bottom;verticalAlign=top;html=1;shadow=0;dashed=0;strokeWidth=1;shape=mxgraph.android.phone2;strokeColor=#c0c0c0;" vertex="1" parent="1">
          <mxGeometry x="570" y="430" width="200" height="390" as="geometry" />
        </mxCell>
        <mxCell id="51rzMfF2jbTdFBJU-r59-60" value="&lt;b&gt;&lt;font face=&quot;Comic Sans MS&quot;&gt;РОБОТ ПЫЛИК&lt;/font&gt;&lt;/b&gt;" style="text;html=1;strokeColor=none;fillColor=none;align=center;verticalAlign=middle;whiteSpace=wrap;rounded=0;" vertex="1" parent="1">
          <mxGeometry x="642.5" y="464" width="60" height="30" as="geometry" />
        </mxCell>
        <mxCell id="51rzMfF2jbTdFBJU-r59-61" value="&lt;b&gt;&lt;i&gt;&lt;font style=&quot;font-size: 15px;&quot;&gt;Расписание&lt;/font&gt;&lt;/i&gt;&lt;/b&gt;" style="text;html=1;strokeColor=none;fillColor=none;align=center;verticalAlign=middle;whiteSpace=wrap;rounded=0;" vertex="1" parent="1">
          <mxGeometry x="640" y="500" width="60" height="30" as="geometry" />
        </mxCell>
        <mxCell id="51rzMfF2jbTdFBJU-r59-78" value="" style="dashed=0;align=center;fontSize=12;shape=rect;fillColor=#ffffff;strokeColor=#cccccc;whiteSpace=wrap;html=1;" vertex="1" parent="1">
          <mxGeometry x="690" y="540" width="70" height="20" as="geometry" />
        </mxCell>
        <mxCell id="51rzMfF2jbTdFBJU-r59-79" value="10.00" style="text;fontColor=#000000;verticalAlign=middle;spacingLeft=13;fontSize=14;whiteSpace=wrap;html=1;" vertex="1" parent="51rzMfF2jbTdFBJU-r59-78">
          <mxGeometry width="70" height="20" as="geometry" />
        </mxCell>
        <mxCell id="51rzMfF2jbTdFBJU-r59-80" value="" style="dashed=0;html=1;shape=mxgraph.gmdl.triangle;fillColor=#cccccc;strokeColor=none;" vertex="1" parent="51rzMfF2jbTdFBJU-r59-78">
          <mxGeometry x="1" y="0.5" width="10" height="5" relative="1" as="geometry">
            <mxPoint x="-25" y="-2.5" as="offset" />
          </mxGeometry>
        </mxCell>
        <mxCell id="51rzMfF2jbTdFBJU-r59-81" value="" style="dashed=0;align=center;fontSize=12;shape=rect;fillColor=#ffffff;strokeColor=#cccccc;whiteSpace=wrap;html=1;" vertex="1" parent="1">
          <mxGeometry x="580" y="540" width="90" height="20" as="geometry" />
        </mxCell>
        <mxCell id="51rzMfF2jbTdFBJU-r59-82" value="пн" style="text;fontColor=#000000;verticalAlign=middle;spacingLeft=13;fontSize=14;whiteSpace=wrap;html=1;" vertex="1" parent="51rzMfF2jbTdFBJU-r59-81">
          <mxGeometry width="90" height="20" as="geometry" />
        </mxCell>
        <mxCell id="51rzMfF2jbTdFBJU-r59-83" value="" style="dashed=0;html=1;shape=mxgraph.gmdl.triangle;fillColor=#cccccc;strokeColor=none;" vertex="1" parent="51rzMfF2jbTdFBJU-r59-81">
          <mxGeometry x="1" y="0.5" width="10" height="5" relative="1" as="geometry">
            <mxPoint x="-25" y="-2.5" as="offset" />
          </mxGeometry>
        </mxCell>
        <mxCell id="51rzMfF2jbTdFBJU-r59-84" value="" style="dashed=0;align=center;fontSize=12;shape=rect;fillColor=#ffffff;strokeColor=#cccccc;whiteSpace=wrap;html=1;" vertex="1" parent="1">
          <mxGeometry x="580" y="623" width="90" height="20" as="geometry" />
        </mxCell>
        <mxCell id="51rzMfF2jbTdFBJU-r59-85" value="чт" style="text;fontColor=#000000;verticalAlign=middle;spacingLeft=13;fontSize=14;whiteSpace=wrap;html=1;" vertex="1" parent="51rzMfF2jbTdFBJU-r59-84">
          <mxGeometry width="90" height="20" as="geometry" />
        </mxCell>
        <mxCell id="51rzMfF2jbTdFBJU-r59-86" value="" style="dashed=0;html=1;shape=mxgraph.gmdl.triangle;fillColor=#cccccc;strokeColor=none;" vertex="1" parent="51rzMfF2jbTdFBJU-r59-84">
          <mxGeometry x="1" y="0.5" width="10" height="5" relative="1" as="geometry">
            <mxPoint x="-25" y="-2.5" as="offset" />
          </mxGeometry>
        </mxCell>
        <mxCell id="51rzMfF2jbTdFBJU-r59-87" value="" style="dashed=0;align=center;fontSize=12;shape=rect;fillColor=#ffffff;strokeColor=#cccccc;whiteSpace=wrap;html=1;" vertex="1" parent="1">
          <mxGeometry x="690" y="623" width="70" height="20" as="geometry" />
        </mxCell>
        <mxCell id="51rzMfF2jbTdFBJU-r59-88" value="10.00" style="text;fontColor=#000000;verticalAlign=middle;spacingLeft=13;fontSize=14;whiteSpace=wrap;html=1;" vertex="1" parent="51rzMfF2jbTdFBJU-r59-87">
          <mxGeometry width="70" height="20" as="geometry" />
        </mxCell>
        <mxCell id="51rzMfF2jbTdFBJU-r59-89" value="" style="dashed=0;html=1;shape=mxgraph.gmdl.triangle;fillColor=#cccccc;strokeColor=none;" vertex="1" parent="51rzMfF2jbTdFBJU-r59-87">
          <mxGeometry x="1" y="0.5" width="10" height="5" relative="1" as="geometry">
            <mxPoint x="-25" y="-2.5" as="offset" />
          </mxGeometry>
        </mxCell>
        <mxCell id="51rzMfF2jbTdFBJU-r59-90" value="&lt;font style=&quot;font-size: 9px;&quot;&gt;добавить в расписание&lt;/font&gt;" style="rounded=1;html=1;shadow=0;dashed=0;whiteSpace=wrap;fontSize=10;fillColor=#999999;align=center;strokeColor=#666666;fontColor=#ffffff;strokeWidth=2;" vertex="1" parent="1">
          <mxGeometry x="615" y="703.12" width="105.5" height="16.88" as="geometry" />
        </mxCell>
        <mxCell id="51rzMfF2jbTdFBJU-r59-95" value="влажная" style="text;html=1;strokeColor=none;fillColor=none;align=center;verticalAlign=middle;whiteSpace=wrap;rounded=0;" vertex="1" parent="1">
          <mxGeometry x="637.75" y="562" width="60" height="30" as="geometry" />
        </mxCell>
        <mxCell id="51rzMfF2jbTdFBJU-r59-96" value="режим пылесоса" style="text;html=1;strokeColor=none;fillColor=none;align=center;verticalAlign=middle;whiteSpace=wrap;rounded=0;" vertex="1" parent="1">
          <mxGeometry x="660.5" y="650.01" width="60" height="30" as="geometry" />
        </mxCell>
        <mxCell id="51rzMfF2jbTdFBJU-r59-98" value="" style="shape=ellipse;labelPosition=right;align=left;strokeColor=none;fillColor=#B0B0B0;opacity=10;sketch=0;html=1;" vertex="1" parent="1">
          <mxGeometry x="590" y="553" width="48" height="48" as="geometry" />
        </mxCell>
        <mxCell id="51rzMfF2jbTdFBJU-r59-99" value="" style="dashed=0;labelPosition=right;align=left;shape=mxgraph.gmdl.checkbox;strokeColor=none;fillColor=#676767;strokeWidth=2;sketch=0;html=1;" vertex="1" parent="51rzMfF2jbTdFBJU-r59-98">
          <mxGeometry x="16" y="16" width="16" height="16" as="geometry" />
        </mxCell>
        <mxCell id="51rzMfF2jbTdFBJU-r59-100" value="" style="shape=ellipse;labelPosition=right;align=left;strokeColor=none;fillColor=#B0B0B0;opacity=10;sketch=0;html=1;" vertex="1" parent="1">
          <mxGeometry x="589.75" y="642" width="48" height="48" as="geometry" />
        </mxCell>
        <mxCell id="51rzMfF2jbTdFBJU-r59-101" value="" style="dashed=0;labelPosition=right;align=left;shape=mxgraph.gmdl.checkbox;strokeColor=none;fillColor=#676767;strokeWidth=2;sketch=0;html=1;" vertex="1" parent="51rzMfF2jbTdFBJU-r59-100">
          <mxGeometry x="16" y="16" width="16" height="16" as="geometry" />
        </mxCell>
      </root>
    </mxGraphModel>
  </diagram>
</mxfile>
